<mxfile host="65bd71144e">
    <diagram id="zJ8jiQ2z-rG6Kfy2PiQ8" name="ログイン＆ユーザー登録">
        <mxGraphModel dx="832" dy="449" grid="1" gridSize="10" guides="1" tooltips="1" connect="1" arrows="1" fold="1" page="1" pageScale="1" pageWidth="827" pageHeight="1169" math="0" shadow="0">
            <root>
                <mxCell id="0"/>
                <mxCell id="1" parent="0"/>
                <mxCell id="3" value="ログイン画面" style="rounded=0;whiteSpace=wrap;html=1;fillColor=#0050ef;fontColor=#ffffff;strokeColor=#001DBC;" parent="1" vertex="1">
                    <mxGeometry x="40" y="10" width="120" height="60" as="geometry"/>
                </mxCell>
                <mxCell id="4" value="USERテーブル&lt;br&gt;DB" style="rounded=0;whiteSpace=wrap;html=1;fillColor=#60a917;fontColor=#ffffff;strokeColor=#2D7600;" parent="1" vertex="1">
                    <mxGeometry x="590" y="330" width="120" height="60" as="geometry"/>
                </mxCell>
                <mxCell id="5" value="ユーザー登録" style="rounded=0;whiteSpace=wrap;html=1;fillColor=#0050ef;fontColor=#ffffff;strokeColor=#001DBC;" parent="1" vertex="1">
                    <mxGeometry x="40" y="190" width="120" height="60" as="geometry"/>
                </mxCell>
                <mxCell id="7" value="" style="shape=singleArrow;whiteSpace=wrap;html=1;rotation=90;" parent="1" vertex="1">
                    <mxGeometry x="40" y="120" width="105" height="20" as="geometry"/>
                </mxCell>
                <mxCell id="8" value="&amp;lt;a&amp;gt;" style="text;html=1;align=center;verticalAlign=middle;resizable=0;points=[];autosize=1;strokeColor=none;fillColor=none;fontSize=24;" parent="1" vertex="1">
                    <mxGeometry x="100" y="110" width="60" height="40" as="geometry"/>
                </mxCell>
                <mxCell id="10" value="UserRegistrServlet.java&lt;br&gt;Servlet" style="rounded=0;whiteSpace=wrap;html=1;fillColor=#d80073;fontColor=#ffffff;strokeColor=#A50040;" parent="1" vertex="1">
                    <mxGeometry x="40" y="400" width="120" height="60" as="geometry"/>
                </mxCell>
                <mxCell id="13" value="" style="shape=singleArrow;direction=west;whiteSpace=wrap;html=1;fontSize=24;rotation=-90;" parent="1" vertex="1">
                    <mxGeometry x="20" y="310" width="129.38" height="20" as="geometry"/>
                </mxCell>
                <mxCell id="14" value="Post" style="text;html=1;align=center;verticalAlign=middle;resizable=0;points=[];autosize=1;strokeColor=none;fillColor=none;fontSize=24;" parent="1" vertex="1">
                    <mxGeometry x="20" y="288.07" width="70" height="40" as="geometry"/>
                </mxCell>
                <mxCell id="15" value="入力情報に不備がないかを判定&lt;br style=&quot;font-size: 13px;&quot;&gt;DAOへregister()&lt;br&gt;※INSERT文※を依頼" style="text;html=1;align=center;verticalAlign=middle;resizable=0;points=[];autosize=1;strokeColor=none;fillColor=none;fontSize=13;" parent="1" vertex="1">
                    <mxGeometry y="460" width="210" height="60" as="geometry"/>
                </mxCell>
                <mxCell id="16" value="" style="shape=singleArrow;direction=west;whiteSpace=wrap;html=1;fontSize=13;rotation=-225;" parent="1" vertex="1">
                    <mxGeometry x="125.13" y="360" width="44.87" height="30" as="geometry"/>
                </mxCell>
                <mxCell id="19" value="UserRegistrの時&lt;br&gt;INSERT INTO&amp;nbsp; USER(ID,NAME,PASS,BIRTHDATE)&lt;br&gt;VALUES(userName,pass,birthDay)&lt;br&gt;&lt;br&gt;LoginLogicの場合&lt;br&gt;SERECT NAME,PASS FROM USER&lt;br&gt;WERER NAME=userName" style="text;html=1;align=center;verticalAlign=middle;resizable=0;points=[];autosize=1;strokeColor=none;fillColor=none;fontSize=13;" parent="1" vertex="1">
                    <mxGeometry x="490" y="390" width="320" height="120" as="geometry"/>
                </mxCell>
                <mxCell id="21" value="LoginServlet.java&lt;br&gt;Servlet" style="rounded=0;whiteSpace=wrap;html=1;fillColor=#d80073;fontColor=#ffffff;strokeColor=#A50040;" parent="1" vertex="1">
                    <mxGeometry x="590" y="10" width="120" height="60" as="geometry"/>
                </mxCell>
                <mxCell id="22" value="" style="shape=singleArrow;whiteSpace=wrap;html=1;rotation=0;" parent="1" vertex="1">
                    <mxGeometry x="170" y="30" width="380" height="10" as="geometry"/>
                </mxCell>
                <mxCell id="23" value="Post" style="text;html=1;align=center;verticalAlign=middle;resizable=0;points=[];autosize=1;strokeColor=none;fillColor=none;fontSize=24;" parent="1" vertex="1">
                    <mxGeometry x="265" width="70" height="40" as="geometry"/>
                </mxCell>
                <mxCell id="26" value="DBへのSERECTで入力情報を照合&lt;br style=&quot;font-size: 13px;&quot;&gt;" style="text;html=1;align=center;verticalAlign=middle;resizable=0;points=[];autosize=1;strokeColor=none;fillColor=none;fontSize=13;" parent="1" vertex="1">
                    <mxGeometry x="304" y="570" width="220" height="30" as="geometry"/>
                </mxCell>
                <mxCell id="27" value="" style="shape=singleArrow;whiteSpace=wrap;html=1;rotation=-210;" parent="1" vertex="1">
                    <mxGeometry x="520" y="70" width="70" height="20" as="geometry"/>
                </mxCell>
                <mxCell id="28" value="UserDAO.java&lt;br&gt;DAO" style="rounded=0;whiteSpace=wrap;html=1;fillColor=#d80073;fontColor=#ffffff;strokeColor=#A50040;" parent="1" vertex="1">
                    <mxGeometry x="270" y="191" width="120" height="60" as="geometry"/>
                </mxCell>
                <mxCell id="31" value="" style="shape=singleArrow;whiteSpace=wrap;html=1;rotation=30;" parent="1" vertex="1">
                    <mxGeometry x="379.17" y="293.87" width="219" height="20" as="geometry"/>
                </mxCell>
                <mxCell id="32" value="LoginDAO.java&lt;br&gt;DAO" style="rounded=0;whiteSpace=wrap;html=1;fillColor=#d80073;fontColor=#ffffff;strokeColor=#A50040;" parent="1" vertex="1">
                    <mxGeometry x="120" y="580" width="120" height="60" as="geometry"/>
                </mxCell>
                <mxCell id="34" value="" style="shape=singleArrow;whiteSpace=wrap;html=1;rotation=-150;" parent="1" vertex="1">
                    <mxGeometry x="389.1" y="268.07" width="207.59" height="20" as="geometry"/>
                </mxCell>
                <mxCell id="37" value="" style="shape=singleArrow;whiteSpace=wrap;html=1;rotation=-30;" parent="1" vertex="1">
                    <mxGeometry x="390" y="180" width="60" height="20" as="geometry"/>
                </mxCell>
                <mxCell id="38" value="Post" style="text;html=1;align=center;verticalAlign=middle;resizable=0;points=[];autosize=1;strokeColor=none;fillColor=none;fontSize=18;rotation=-30;" parent="1" vertex="1">
                    <mxGeometry x="405" y="190" width="60" height="40" as="geometry"/>
                </mxCell>
                <mxCell id="39" value="TOP画面" style="rounded=0;whiteSpace=wrap;html=1;fillColor=#0050ef;fontColor=#ffffff;strokeColor=#001DBC;" parent="1" vertex="1">
                    <mxGeometry x="590" y="155" width="120" height="60" as="geometry"/>
                </mxCell>
                <mxCell id="40" value="" style="shape=singleArrow;whiteSpace=wrap;html=1;rotation=90;" parent="1" vertex="1">
                    <mxGeometry x="615" y="100" width="70" height="20" as="geometry"/>
                </mxCell>
                <mxCell id="41" value="フォワード" style="text;html=1;align=center;verticalAlign=middle;resizable=0;points=[];autosize=1;strokeColor=none;fillColor=none;fontSize=24;" parent="1" vertex="1">
                    <mxGeometry x="650" y="90" width="140" height="40" as="geometry"/>
                </mxCell>
                <mxCell id="42" value="BOの呼び出しを依頼&lt;br&gt;一致していればTOP画面にフォワード&lt;br&gt;間違っていれば&lt;br&gt;「パスワードかユーザーネームが違います」を表示" style="text;html=1;align=center;verticalAlign=middle;resizable=0;points=[];autosize=1;strokeColor=none;fillColor=none;fontSize=13;" parent="1" vertex="1">
                    <mxGeometry x="700" y="5" width="320" height="80" as="geometry"/>
                </mxCell>
                <mxCell id="43" value="LoginLogic.java&lt;br&gt;BO" style="rounded=0;whiteSpace=wrap;html=1;fillColor=#d80073;fontColor=#ffffff;strokeColor=#A50040;" parent="1" vertex="1">
                    <mxGeometry x="420" y="110" width="120" height="60" as="geometry"/>
                </mxCell>
                <mxCell id="44" value="" style="shape=singleArrow;whiteSpace=wrap;html=1;rotation=-215;" parent="1" vertex="1">
                    <mxGeometry x="347" y="150" width="73" height="20" as="geometry"/>
                </mxCell>
                <mxCell id="45" value="Post" style="text;html=1;align=center;verticalAlign=middle;resizable=0;points=[];autosize=1;strokeColor=none;fillColor=none;fontSize=24;rotation=-30;" parent="1" vertex="1">
                    <mxGeometry x="344" y="120" width="70" height="40" as="geometry"/>
                </mxCell>
                <mxCell id="46" value="" style="shape=singleArrow;whiteSpace=wrap;html=1;rotation=-180;" parent="1" vertex="1">
                    <mxGeometry x="178" y="50" width="384" height="20" as="geometry"/>
                </mxCell>
                <mxCell id="47" value="フォワード" style="text;html=1;align=center;verticalAlign=middle;resizable=0;points=[];autosize=1;strokeColor=none;fillColor=none;fontSize=24;rotation=0;" parent="1" vertex="1">
                    <mxGeometry x="335" y="60" width="140" height="40" as="geometry"/>
                </mxCell>
                <mxCell id="48" value="" style="shape=singleArrow;whiteSpace=wrap;html=1;rotation=-30;" parent="1" vertex="1">
                    <mxGeometry x="538.66" y="85" width="85" height="20" as="geometry"/>
                </mxCell>
                <mxCell id="49" value="UserRegisterLogic&lt;br&gt;BO" style="rounded=0;whiteSpace=wrap;html=1;fillColor=#d80073;fontColor=#ffffff;strokeColor=#A50040;" parent="1" vertex="1">
                    <mxGeometry x="160" y="293.87" width="120" height="60" as="geometry"/>
                </mxCell>
                <mxCell id="52" value="" style="shape=singleArrow;direction=west;whiteSpace=wrap;html=1;fontSize=13;rotation=-45;" parent="1" vertex="1">
                    <mxGeometry x="165.1255423537184" y="360.0005423537184" width="44.87" height="30" as="geometry"/>
                </mxCell>
                <mxCell id="53" value="" style="shape=singleArrow;direction=west;whiteSpace=wrap;html=1;fontSize=13;rotation=-225;" parent="1" vertex="1">
                    <mxGeometry x="235.12554235371837" y="258.07054235371845" width="44.87" height="30" as="geometry"/>
                </mxCell>
                <mxCell id="55" value="Post" style="text;html=1;align=center;verticalAlign=middle;resizable=0;points=[];autosize=1;strokeColor=none;fillColor=none;fontSize=24;rotation=-45;" parent="1" vertex="1">
                    <mxGeometry x="200" y="240" width="70" height="40" as="geometry"/>
                </mxCell>
                <mxCell id="56" value="" style="shape=singleArrow;whiteSpace=wrap;html=1;rotation=-90;" parent="1" vertex="1">
                    <mxGeometry x="47.7" y="307.56" width="129.87" height="20" as="geometry"/>
                </mxCell>
            </root>
        </mxGraphModel>
    </diagram>
    <diagram id="-XiUjVID8vWQ8exKHn0C" name="メイン機能">
        <mxGraphModel dx="832" dy="449" grid="1" gridSize="10" guides="1" tooltips="1" connect="1" arrows="1" fold="1" page="1" pageScale="1" pageWidth="827" pageHeight="1169" math="0" shadow="0">
            <root>
                <mxCell id="0"/>
                <mxCell id="1" parent="0"/>
                <mxCell id="U2PQisb_Yz4y4_HZk-4O-1" value="top.jsp&lt;br&gt;TOP画面" style="rounded=0;whiteSpace=wrap;html=1;fillColor=#0050ef;fontColor=#ffffff;strokeColor=#001DBC;" parent="1" vertex="1">
                    <mxGeometry x="10" y="30" width="120" height="60" as="geometry"/>
                </mxCell>
                <mxCell id="U2PQisb_Yz4y4_HZk-4O-2" value="AreaSelect.jsp&lt;br&gt;エリア選択画面" style="rounded=0;whiteSpace=wrap;html=1;fillColor=#0050ef;fontColor=#ffffff;strokeColor=#001DBC;" parent="1" vertex="1">
                    <mxGeometry x="400" y="30" width="120" height="60" as="geometry"/>
                </mxCell>
                <mxCell id="U2PQisb_Yz4y4_HZk-4O-3" value="" style="shape=singleArrow;whiteSpace=wrap;html=1;rotation=0;" parent="1" vertex="1">
                    <mxGeometry x="140" y="50" width="40" height="20" as="geometry"/>
                </mxCell>
                <mxCell id="U2PQisb_Yz4y4_HZk-4O-4" value="Get" style="text;html=1;align=center;verticalAlign=middle;resizable=0;points=[];autosize=1;strokeColor=none;fillColor=none;fontSize=18;" parent="1" vertex="1">
                    <mxGeometry x="135" y="20" width="50" height="40" as="geometry"/>
                </mxCell>
                <mxCell id="U2PQisb_Yz4y4_HZk-4O-5" value="" style="shape=singleArrow;whiteSpace=wrap;html=1;rotation=0;fontSize=18;" parent="1" vertex="1">
                    <mxGeometry x="320" y="50" width="70" height="20" as="geometry"/>
                </mxCell>
                <mxCell id="U2PQisb_Yz4y4_HZk-4O-6" value="umedaArea.jsp&lt;br&gt;梅田エリア画面" style="rounded=0;whiteSpace=wrap;html=1;fillColor=#0050ef;fontColor=#ffffff;strokeColor=#001DBC;fontSize=12;" parent="1" vertex="1">
                    <mxGeometry x="400" y="300" width="120" height="60" as="geometry"/>
                </mxCell>
                <mxCell id="z_lSh8fnmeTvyLRAHOy7-4" value="" style="shape=singleArrow;whiteSpace=wrap;html=1;rotation=90;fontSize=12;" parent="1" vertex="1">
                    <mxGeometry x="437.5" y="120" width="45" height="20" as="geometry"/>
                </mxCell>
                <mxCell id="z_lSh8fnmeTvyLRAHOy7-9" value="AreaSelectServlet&lt;br&gt;.java&lt;br&gt;Servlet" style="rounded=0;whiteSpace=wrap;html=1;fillColor=#d80073;fontColor=#ffffff;strokeColor=#A50040;fontSize=14;" parent="1" vertex="1">
                    <mxGeometry x="190" y="30" width="120" height="60" as="geometry"/>
                </mxCell>
                <mxCell id="z_lSh8fnmeTvyLRAHOy7-10" value="フォワード" style="text;html=1;align=center;verticalAlign=middle;resizable=0;points=[];autosize=1;strokeColor=none;fillColor=none;fontSize=14;rotation=0;" parent="1" vertex="1">
                    <mxGeometry x="310" y="30" width="90" height="30" as="geometry"/>
                </mxCell>
                <mxCell id="z_lSh8fnmeTvyLRAHOy7-11" value="Main.java&lt;br&gt;Servlet&amp;amp;BO" style="rounded=0;whiteSpace=wrap;html=1;fillColor=#d80073;fontColor=#ffffff;strokeColor=#A50040;fontSize=14;" parent="1" vertex="1">
                    <mxGeometry x="400" y="170" width="120" height="60" as="geometry"/>
                </mxCell>
                <mxCell id="z_lSh8fnmeTvyLRAHOy7-12" value="Get" style="text;html=1;align=center;verticalAlign=middle;resizable=0;points=[];autosize=1;strokeColor=none;fillColor=none;fontSize=18;rotation=90;" parent="1" vertex="1">
                    <mxGeometry x="460" y="110" width="50" height="40" as="geometry"/>
                </mxCell>
                <mxCell id="z_lSh8fnmeTvyLRAHOy7-13" value="" style="shape=singleArrow;whiteSpace=wrap;html=1;rotation=-180;fontSize=14;" parent="1" vertex="1">
                    <mxGeometry x="320" y="180" width="71" height="20" as="geometry"/>
                </mxCell>
                <mxCell id="z_lSh8fnmeTvyLRAHOy7-14" value="doGet" style="text;html=1;align=center;verticalAlign=middle;resizable=0;points=[];autosize=1;strokeColor=none;fillColor=none;fontSize=14;rotation=0;" parent="1" vertex="1">
                    <mxGeometry x="325.5" y="160" width="60" height="30" as="geometry"/>
                </mxCell>
                <mxCell id="z_lSh8fnmeTvyLRAHOy7-15" value="セッションスコープ&lt;br&gt;loginUser" style="rounded=0;whiteSpace=wrap;html=1;fillColor=#f0a30a;fontColor=#000000;strokeColor=#BD7000;fontSize=12;" parent="1" vertex="1">
                    <mxGeometry x="190" y="170" width="121" height="60" as="geometry"/>
                </mxCell>
                <mxCell id="z_lSh8fnmeTvyLRAHOy7-20" value="取得" style="text;html=1;align=center;verticalAlign=middle;resizable=0;points=[];autosize=1;strokeColor=none;fillColor=none;fontSize=18;" parent="1" vertex="1">
                    <mxGeometry x="329" y="190" width="60" height="40" as="geometry"/>
                </mxCell>
                <mxCell id="z_lSh8fnmeTvyLRAHOy7-22" value="" style="shape=singleArrow;whiteSpace=wrap;html=1;rotation=90;fontSize=14;" parent="1" vertex="1">
                    <mxGeometry x="435" y="255" width="51" height="20" as="geometry"/>
                </mxCell>
                <mxCell id="z_lSh8fnmeTvyLRAHOy7-23" value="Post" style="text;html=1;align=center;verticalAlign=middle;resizable=0;points=[];autosize=1;strokeColor=none;fillColor=none;fontSize=24;rotation=90;" parent="1" vertex="1">
                    <mxGeometry x="450" y="245" width="70" height="40" as="geometry"/>
                </mxCell>
                <mxCell id="z_lSh8fnmeTvyLRAHOy7-24" value="&lt;font style=&quot;font-size: 13px;&quot;&gt;UserRequestServlet&lt;/font&gt;&lt;br&gt;.java&lt;br&gt;Servlet" style="rounded=0;whiteSpace=wrap;html=1;fillColor=#d80073;fontColor=#ffffff;strokeColor=#A50040;fontSize=14;" parent="1" vertex="1">
                    <mxGeometry x="191" y="300" width="120" height="60" as="geometry"/>
                </mxCell>
                <mxCell id="z_lSh8fnmeTvyLRAHOy7-25" value="" style="shape=singleArrow;whiteSpace=wrap;html=1;rotation=-180;fontSize=14;" parent="1" vertex="1">
                    <mxGeometry x="318" y="320" width="75" height="20" as="geometry"/>
                </mxCell>
                <mxCell id="z_lSh8fnmeTvyLRAHOy7-26" value="Post" style="text;html=1;align=center;verticalAlign=middle;resizable=0;points=[];autosize=1;strokeColor=none;fillColor=none;fontSize=24;" parent="1" vertex="1">
                    <mxGeometry x="324" y="285" width="70" height="40" as="geometry"/>
                </mxCell>
                <mxCell id="z_lSh8fnmeTvyLRAHOy7-32" value="userRequestPost.jsp&lt;br&gt;投稿フォーム画面" style="rounded=0;whiteSpace=wrap;html=1;fillColor=#0050ef;fontColor=#ffffff;strokeColor=#001DBC;fontSize=13;" parent="1" vertex="1">
                    <mxGeometry x="10" y="300" width="120" height="60" as="geometry"/>
                </mxCell>
                <mxCell id="z_lSh8fnmeTvyLRAHOy7-33" value="" style="shape=singleArrow;whiteSpace=wrap;html=1;rotation=-180;fontSize=13;" parent="1" vertex="1">
                    <mxGeometry x="137.5" y="340" width="45" height="20" as="geometry"/>
                </mxCell>
                <mxCell id="z_lSh8fnmeTvyLRAHOy7-34" value="フォワード" style="text;html=1;align=center;verticalAlign=middle;resizable=0;points=[];autosize=1;strokeColor=none;fillColor=none;fontSize=13;" parent="1" vertex="1">
                    <mxGeometry x="116" y="360" width="90" height="30" as="geometry"/>
                </mxCell>
                <mxCell id="VWNykj_DcMWMCxsH8z2D-1" value="" style="shape=singleArrow;whiteSpace=wrap;html=1;rotation=0;" parent="1" vertex="1">
                    <mxGeometry x="141" y="317.5" width="39" height="20" as="geometry"/>
                </mxCell>
                <mxCell id="VWNykj_DcMWMCxsH8z2D-2" value="UserResponseLogic&lt;br&gt;.java&lt;br&gt;BO" style="rounded=0;whiteSpace=wrap;html=1;fillColor=#d80073;fontColor=#ffffff;strokeColor=#A50040;" parent="1" vertex="1">
                    <mxGeometry x="615" y="430" width="120" height="60" as="geometry"/>
                </mxCell>
                <mxCell id="VWNykj_DcMWMCxsH8z2D-4" value="レスポンスボタンを生成&lt;br&gt;ポイントの増加&lt;br&gt;データベースの更新&lt;br&gt;" style="text;html=1;align=center;verticalAlign=middle;resizable=0;points=[];autosize=1;strokeColor=none;fillColor=none;fontSize=11;" parent="1" vertex="1">
                    <mxGeometry x="605" y="490" width="140" height="50" as="geometry"/>
                </mxCell>
                <mxCell id="VWNykj_DcMWMCxsH8z2D-5" value="" style="shape=singleArrow;whiteSpace=wrap;html=1;rotation=0;" parent="1" vertex="1">
                    <mxGeometry x="530" y="317.5" width="70" height="20" as="geometry"/>
                </mxCell>
                <mxCell id="VWNykj_DcMWMCxsH8z2D-8" value="response&lt;span style=&quot;background-color: initial;&quot;&gt;Notice.jsp&lt;/span&gt;&lt;br&gt;レスポンス通知画面" style="rounded=0;whiteSpace=wrap;html=1;fillColor=#0050ef;fontColor=#ffffff;strokeColor=#001DBC;fontSize=12;" parent="1" vertex="1">
                    <mxGeometry x="400" y="430" width="120" height="60" as="geometry"/>
                </mxCell>
                <mxCell id="VWNykj_DcMWMCxsH8z2D-9" value="" style="shape=singleArrow;whiteSpace=wrap;html=1;rotation=-30;fontSize=11;" parent="1" vertex="1">
                    <mxGeometry x="516.65" y="392.5" width="100" height="20" as="geometry"/>
                </mxCell>
                <mxCell id="VWNykj_DcMWMCxsH8z2D-10" value="" style="shape=singleArrow;whiteSpace=wrap;html=1;rotation=90;fontSize=11;" parent="1" vertex="1">
                    <mxGeometry x="430.5" y="390" width="60" height="20" as="geometry"/>
                </mxCell>
                <mxCell id="VWNykj_DcMWMCxsH8z2D-11" value="UserResponseServlet&lt;br&gt;.java&lt;br&gt;Servlet" style="rounded=0;whiteSpace=wrap;html=1;fillColor=#d80073;fontColor=#ffffff;strokeColor=#A50040;fontSize=11;" parent="1" vertex="1">
                    <mxGeometry x="615" y="317.5" width="120" height="60" as="geometry"/>
                </mxCell>
                <mxCell id="VWNykj_DcMWMCxsH8z2D-13" value="" style="shape=singleArrow;whiteSpace=wrap;html=1;rotation=90;fontSize=11;" parent="1" vertex="1">
                    <mxGeometry x="650" y="392.5" width="42" height="20" as="geometry"/>
                </mxCell>
                <mxCell id="VWNykj_DcMWMCxsH8z2D-16" value="Post" style="text;html=1;align=center;verticalAlign=middle;resizable=0;points=[];autosize=1;strokeColor=none;fillColor=none;fontSize=24;" parent="1" vertex="1">
                    <mxGeometry x="526" y="285" width="70" height="40" as="geometry"/>
                </mxCell>
                <mxCell id="xzewt6_StbocFjuFdH0Y-1" value="UserRequestLogic&lt;br&gt;.java&lt;br&gt;BO" style="rounded=0;whiteSpace=wrap;html=1;fillColor=#d80073;fontColor=#ffffff;strokeColor=#A50040;" vertex="1" parent="1">
                    <mxGeometry x="8" y="430" width="120" height="60" as="geometry"/>
                </mxCell>
                <mxCell id="8b-QJ5RPVLTUW0X1Dtw6-1" value="POSTテーブル&lt;br&gt;DB" style="rounded=0;whiteSpace=wrap;html=1;fillColor=#60a917;fontColor=#ffffff;strokeColor=#2D7600;" vertex="1" parent="1">
                    <mxGeometry x="190" y="540" width="120" height="60" as="geometry"/>
                </mxCell>
                <mxCell id="8b-QJ5RPVLTUW0X1Dtw6-2" value="PostsDAO.java&lt;br&gt;DAO" style="rounded=0;whiteSpace=wrap;html=1;fillColor=#d80073;fontColor=#ffffff;strokeColor=#A50040;" vertex="1" parent="1">
                    <mxGeometry x="191" y="430" width="120" height="60" as="geometry"/>
                </mxCell>
                <mxCell id="8b-QJ5RPVLTUW0X1Dtw6-3" value="" style="shape=singleArrow;whiteSpace=wrap;html=1;rotation=0;" vertex="1" parent="1">
                    <mxGeometry x="137.5" y="450" width="45" height="20" as="geometry"/>
                </mxCell>
                <mxCell id="8b-QJ5RPVLTUW0X1Dtw6-4" value="" style="shape=singleArrow;whiteSpace=wrap;html=1;rotation=90;" vertex="1" parent="1">
                    <mxGeometry x="234.38" y="504.38" width="31.25" height="20" as="geometry"/>
                </mxCell>
                <mxCell id="UoSQAQZ9bFDKpHKB_u2I-1" value="INSERT" style="text;html=1;align=center;verticalAlign=middle;resizable=0;points=[];autosize=1;strokeColor=none;fillColor=none;fontSize=14;rotation=0;" vertex="1" parent="1">
                    <mxGeometry x="300" y="500" width="70" height="30" as="geometry"/>
                </mxCell>
                <mxCell id="UoSQAQZ9bFDKpHKB_u2I-2" value="" style="shape=singleArrow;whiteSpace=wrap;html=1;rotation=-225;fontSize=14;" vertex="1" parent="1">
                    <mxGeometry x="125.83" y="402.01" width="99.33" height="20" as="geometry"/>
                </mxCell>
            </root>
        </mxGraphModel>
    </diagram>
</mxfile>